<mxfile host="app.diagrams.net" modified="2023-04-20T22:55:31.600Z" agent="Mozilla/5.0 (X11; Ubuntu; Linux x86_64; rv:109.0) Gecko/20100101 Firefox/112.0" etag="nAxricK_sPmQB_m3zgmZ" version="21.2.1" type="github">
  <diagram name="PÃ¡gina-1" id="QEftzoCklGQxdV4CvBpL">
    <mxGraphModel dx="1360" dy="795" grid="1" gridSize="10" guides="1" tooltips="1" connect="1" arrows="1" fold="1" page="1" pageScale="1" pageWidth="827" pageHeight="1169" math="0" shadow="0">
      <root>
        <mxCell id="0" />
        <mxCell id="1" parent="0" />
      </root>
    </mxGraphModel>
  </diagram>
</mxfile>
